<?xml version="1.0" encoding="UTF-8"?>
<svg version="1.1" xmlns="http://www.w3.org/2000/svg" width="1920" height="1080">
<path d="M0 0 C633.6 0 1267.2 0 1920 0 C1920 356.4 1920 712.8 1920 1080 C1286.4 1080 652.8 1080 0 1080 C0 723.6 0 367.2 0 0 Z " fill="#000000" transform="translate(0,0)"/>
<path d="M0 0 C50.16 0 100.32 0 152 0 C160.84441308 18.79437779 169.65884252 37.55278838 178.21447754 56.47206116 C182.85055947 66.71902516 187.57735262 76.92352431 192.3125 87.125 C193.11776106 88.86043113 193.92301821 90.59586408 194.72827148 92.33129883 C195.94116425 94.94495384 197.15414497 97.55856795 198.36729431 100.17210388 C210.06752489 125.37912641 221.717106 150.60286717 233 176 C241.19780662 158.69857872 249.33236076 141.37334085 257.22097778 123.92849731 C262.57746606 112.08622098 268.02340168 100.28717353 273.5 88.5 C281.76366017 70.70934661 289.89826108 52.86537299 298 35 C303.28 23.45 308.56 11.9 314 0 C364.49 0 414.98 0 467 0 C460.24117164 12.39118533 460.24117164 12.39118533 457.73046875 16.7421875 C457.16086426 17.73001221 456.59125977 18.71783691 456.00439453 19.7355957 C455.40481934 20.77159912 454.80524414 21.80760254 454.1875 22.875 C453.54151855 23.99285889 452.89553711 25.11071777 452.22998047 26.26245117 C445.26310804 38.30752144 438.21854314 50.30705531 431.17041016 62.3046875 C427.54763075 68.47191915 423.930013 74.64217827 420.3125 80.8125 C419.77958344 81.72136459 419.77958344 81.72136459 419.23590088 82.64859009 C414.48019902 90.75967221 409.7346699 98.87661838 405 107 C399.90806291 115.73635312 394.80243501 124.46459899 389.6875 133.1875 C389.15508194 134.09548843 389.15508194 134.09548843 388.61190796 135.02182007 C385.71052227 139.9696096 382.80845842 144.91700129 379.90637207 149.86437988 C377.37476856 154.18023651 374.84342603 158.49624604 372.3125 162.8125 C371.95731293 163.41822845 371.60212585 164.02395691 371.23617554 164.64804077 C366.48038772 172.75930938 361.734854 180.87648934 357 189 C352.10875363 197.39027042 347.21094206 205.77665997 342.30267334 214.15698242 C341.2018031 216.03806002 340.10296778 217.92031461 339.00439453 219.80273438 C336.02295802 224.90406621 333.03391404 229.99465588 329.88671875 234.99609375 C329.45141846 235.69275146 329.01611816 236.38940918 328.56762695 237.10717773 C327.48237231 238.82958904 326.37887679 240.54047307 325.2734375 242.25 C323.82359323 244.86185448 323.82359323 244.86185448 324.03125 247.42578125 C325.34730626 250.92288236 327.17738748 254.01671044 329.125 257.1875 C330.04042822 258.71011723 330.9543956 260.23361336 331.8671875 261.7578125 C332.36831055 262.5921582 332.86943359 263.42650391 333.38574219 264.28613281 C336.39559852 269.3462603 339.31653337 274.45784478 342.25 279.5625 C347.14076589 288.0569557 352.05387575 296.53766039 357 305 C363.74719493 316.54718726 370.43339398 328.12902168 377.10888672 339.71777344 C380.23680146 345.14659938 383.36853731 350.57322007 386.5 356 C390.26363919 362.52233275 394.02644622 369.04513762 397.78515625 375.5703125 C403.83055159 386.06232094 409.89110219 396.54481676 416 407 C424.02267511 420.73055188 431.95858259 434.51077966 439.89550781 448.29101562 C441.78398491 451.56931057 443.67309685 454.84723869 445.5625 458.125 C446.17287109 459.18436768 446.78324219 460.24373535 447.41210938 461.33520508 C450.60920881 466.8781128 453.82046411 472.4122919 457.0546875 477.93359375 C457.70622803 479.04653809 458.35776855 480.15948242 459.02905273 481.30615234 C460.27915124 483.43917189 461.53119536 485.57105264 462.78540039 487.70166016 C463.3396167 488.64702637 463.89383301 489.59239258 464.46484375 490.56640625 C464.955896 491.40115479 465.44694824 492.23590332 465.95288086 493.09594727 C467 495 467 495 467 496 C416.18 496 365.36 496 313 496 C303.99933224 477.46921344 295.05320557 459.04099932 286.44140625 440.3515625 C282.03504382 430.86878787 277.41830556 421.48847668 272.82400513 412.09576416 C267.41547551 401.03297155 262.136047 389.92597833 257.0012207 378.73291016 C253.81470341 371.81980497 250.53965647 364.9570583 247.19921875 358.1171875 C246.78483551 357.26860168 246.37045227 356.42001587 245.94351196 355.54571533 C243.88208286 351.32909434 241.81380431 347.11595038 239.73828125 342.90625 C238.985643 341.37241256 238.23303723 339.83855918 237.48046875 338.3046875 C237.12804611 337.59464569 236.77562347 336.88460388 236.41252136 336.15304565 C234 331.22592432 234 331.22592432 234 329 C233.34 329 232.68 329 232 329 C231.91927246 329.64662598 231.83854492 330.29325195 231.75537109 330.95947266 C230.71204466 335.15908076 228.83748201 338.78607328 226.9140625 342.6484375 C226.50145172 343.48883072 226.08884094 344.32922394 225.66372681 345.19508362 C224.78068034 346.99205599 223.89500894 348.7877404 223.00695801 350.58224487 C221.61359953 353.39803884 220.22716557 356.21714151 218.84277344 359.03735352 C217.02939967 362.73132302 215.21415368 366.42436098 213.39746094 370.11669922 C210.64914972 375.70824293 207.93286875 381.31421565 205.25 386.9375 C204.83967529 387.79698242 204.42935059 388.65646484 204.0065918 389.54199219 C201.45769941 394.89785538 198.93500591 400.26583953 196.41796875 405.63671875 C195.09142798 408.46627821 193.76454144 411.29567532 192.4375 414.125 C192.10282715 414.83888885 191.7681543 415.55277771 191.42333984 416.28829956 C185.60144654 428.69793242 179.62821627 441.02974279 173.60400391 453.34222412 C168.06079808 464.67688796 162.65591665 476.0622161 157.43847656 487.55078125 C156.99342773 488.52917969 156.54837891 489.50757813 156.08984375 490.515625 C155.70691162 491.36415039 155.32397949 492.21267578 154.92944336 493.08691406 C154 495 154 495 153 496 C151.02571766 496.0966888 149.04792169 496.12187075 147.0712738 496.12025452 C145.78253357 496.12162918 144.49379333 496.12300385 143.16600037 496.12442017 C141.72451759 496.12088055 140.28303505 496.11724573 138.84155273 496.11352539 C137.33403526 496.11324353 135.82651764 496.11340123 134.31900024 496.1139679 C130.21380656 496.11425591 126.10864185 496.10835861 122.00345492 496.10139394 C117.7179674 496.09516099 113.43247928 496.09455665 109.14698792 496.09336853 C101.02613348 496.09025504 92.90529244 496.08204141 84.78444391 496.07201904 C75.54155126 496.06085845 66.29865798 496.05534759 57.05576026 496.05032361 C38.0371659 496.03985881 19.01858403 496.02225903 0 496 C1.2717644 492.06804528 2.61732968 488.63344163 4.73046875 485.078125 C5.27832031 484.14871094 5.82617188 483.21929688 6.390625 482.26171875 C6.98359375 481.26785156 7.5765625 480.27398438 8.1875 479.25 C9.46292098 477.08894367 10.73763673 474.927471 12.01171875 472.765625 C12.67091309 471.64994141 13.33010742 470.53425781 14.00927734 469.38476562 C17.20917294 463.94407975 20.35368231 458.47178526 23.5 453 C28.30782754 444.65162049 33.13905955 436.31756351 38 428 C44.74713114 416.45277514 51.4333937 404.87097881 58.10888672 393.28222656 C61.86028024 386.77128743 65.61690994 380.26336806 69.37255859 373.75488281 C72.51182246 368.31414664 75.64981497 362.87268523 78.78515625 357.4296875 C85.40141117 345.94693103 92.04390011 334.48039099 98.73071289 323.03857422 C103.01244971 315.70687429 107.26206185 308.35709124 111.5 301 C116.44015195 292.42685544 121.3950127 283.86257193 126.375 275.3125 C127.23847046 273.82387451 127.23847046 273.82387451 128.11938477 272.30517578 C130.65208227 267.95284549 133.20805775 263.62852782 135.91015625 259.37890625 C136.34215332 258.69207764 136.77415039 258.00524902 137.21923828 257.29760742 C137.99828493 256.06815004 138.79104319 254.84720735 139.60107422 253.63793945 C141.31188935 250.93003604 142.03094055 249.36880001 141.76000977 246.1394043 C140.97554279 242.89897357 139.90771129 240.61008803 138.21875 237.74609375 C137.34017334 236.24018677 137.34017334 236.24018677 136.44384766 234.70385742 C135.80237793 233.62595947 135.1609082 232.54806152 134.5 231.4375 C133.82385205 230.28606479 133.14857786 229.1341161 132.47412109 227.98168945 C131.04999137 225.55182511 129.62047283 223.12525392 128.18652344 220.70117188 C126.05323648 217.09376631 123.9348918 213.47777039 121.8203125 209.859375 C118.9919705 205.02179823 116.15879712 200.18710154 113.3203125 195.35546875 C109.39624551 188.67588663 105.47747552 181.9932131 101.56048584 175.30947876 C99.79056553 172.28951086 98.02026335 169.26976682 96.25 166.25 C95.54166484 165.04166774 94.83333151 163.8333344 94.125 162.625 C93.774375 162.026875 93.42375 161.42875 93.0625 160.8125 C38.87500003 68.37500005 38.87500003 68.37500005 37.81265259 66.5627594 C37.10381167 65.35356079 36.39496971 64.14436279 35.68612671 62.93516541 C33.92305084 59.92757581 32.15999272 56.91997582 30.39697266 53.91235352 C27.11719853 48.31726857 23.83725646 42.72228229 20.55670166 37.12765503 C19.0296768 34.52345683 17.50275005 31.91920111 15.97583008 29.31494141 C15.25729149 28.0894897 14.53870637 26.86406528 13.82006836 25.63867188 C12.17760824 22.83800161 10.53614602 20.0367682 8.89746094 17.23388672 C7.59082241 15.00695236 6.2758715 12.78488126 4.95410156 10.56689453 C4.31182617 9.4839209 3.66955078 8.40094727 3.0078125 7.28515625 C2.42918457 6.31586182 1.85055664 5.34656738 1.25439453 4.34790039 C0 2 0 2 0 0 Z " fill="#FEFEFE" transform="translate(1423,222)"/>
<path d="M0 0 C0.70568115 0.21164795 1.4113623 0.4232959 2.13842773 0.64135742 C32.2319095 9.84858963 64.62790614 25.69185922 82.625 52.6875 C82.87109566 55.39924908 82.87109566 55.39924908 82.86550903 58.74284363 C82.86963303 60.64221428 82.86963303 60.64221428 82.87384033 62.57995605 C82.86676203 63.98584079 82.85949241 65.39172457 82.85205078 66.79760742 C82.85148673 68.27586357 82.85180312 69.75412028 82.85293579 71.2323761 C82.85351053 75.2486482 82.84173673 79.26480128 82.82778788 83.28104568 C82.81530061 87.47709665 82.8141116 91.67315023 82.81173706 95.86921692 C82.80551639 103.81648644 82.78909765 111.76370106 82.76903808 119.71094638 C82.74669733 128.75799451 82.73569024 137.80504524 82.72564721 146.85211408 C82.70473192 165.46394054 82.66954455 184.07571586 82.625 202.6875 C79.87386376 199.28681957 77.3728889 195.86295344 75 192.1875 C60.3647307 170.12658668 43.13901336 152.22830713 19.625 139.6875 C18.96612793 139.33558594 18.30725586 138.98367188 17.62841797 138.62109375 C-1.37263026 128.75420212 -21.39053101 125.13106062 -42.625 125.1875 C-43.72435379 125.18955444 -43.72435379 125.18955444 -44.84591675 125.19165039 C-57.56829042 125.27025303 -70.27515941 126.10503284 -82.375 130.3125 C-83.12918213 130.57119873 -83.88336426 130.82989746 -84.66040039 131.09643555 C-110.16901515 140.24570852 -128.11363047 160.08797985 -139.625 184.0625 C-145.33504081 196.38064949 -149.05890305 209.31204012 -151.375 222.6875 C-151.58125 223.87859375 -151.7875 225.0696875 -152 226.296875 C-155.27667213 248.23107757 -155.04352508 272.8296305 -151.375 294.6875 C-151.25672852 295.48510742 -151.13845703 296.28271484 -151.01660156 297.10449219 C-147.70701112 319.31159141 -140.10109153 341.40034907 -125.375 358.6875 C-124.78203125 359.42484375 -124.1890625 360.1621875 -123.578125 360.921875 C-111.85356031 374.97197319 -94.87900711 383.95730487 -77.375 388.6875 C-76.36695313 388.98527344 -75.35890625 389.28304688 -74.3203125 389.58984375 C-65.47933351 391.80519299 -56.82983486 391.97013023 -47.75 392 C-46.53513916 392.00547852 -45.32027832 392.01095703 -44.06860352 392.01660156 C-36.0007106 391.9532683 -28.31022617 391.10931302 -20.375 389.6875 C-19.0339592 389.47329973 -17.69283229 389.25963672 -16.3515625 389.046875 C22.37734867 382.00525479 54.35968093 354.79915238 76.3125 323.3125 C77.08895874 322.17808472 77.08895874 322.17808472 77.88110352 321.02075195 C79.10860954 319.22881328 80.36393781 317.4559845 81.625 315.6875 C81.955 315.6875 82.285 315.6875 82.625 315.6875 C83.00032514 332.09967753 83.28165156 348.51044434 83.45399475 364.92588806 C83.53617976 372.5497155 83.64800886 380.17086307 83.83203125 387.79296875 C83.99252979 394.44395393 84.09496258 401.09299779 84.13041592 407.74586582 C84.1511171 411.26327278 84.19899243 414.77513165 84.31668091 418.29074097 C85.0943558 442.44780575 85.0943558 442.44780575 77.04129791 451.20223999 C73.74691705 454.30432443 70.28402316 457.0336027 66.625 459.6875 C64.91388013 461.1070652 63.20544196 462.52989843 61.50390625 463.9609375 C60.07734432 465.01161677 58.63875835 466.04620522 57.1875 467.0625 C56.00546997 467.91062256 56.00546997 467.91062256 54.79956055 468.77587891 C47.03222416 474.26391588 38.97119289 479.13873325 30.625 483.6875 C30.01221191 484.02942383 29.39942383 484.37134766 28.76806641 484.72363281 C9.20728606 495.55615986 -12.43709949 502.67324172 -34.375 506.6875 C-35.62748535 506.92073975 -35.62748535 506.92073975 -36.90527344 507.15869141 C-47.68566286 509.12432841 -58.40995186 510.37966731 -69.375 510.6875 C-70.20950684 510.71473145 -71.04401367 510.74196289 -71.90380859 510.77001953 C-118.69177239 512.11454985 -167.48584625 499.51033995 -202.625 467.25 C-204.05855813 465.87911108 -205.49209773 464.50805058 -206.90820312 463.11914062 C-208.44710882 461.61711949 -210.01127044 460.14468067 -211.578125 458.671875 C-223.53039972 447.27312703 -233.30945774 434.09652975 -241.375 419.6875 C-241.82343262 418.89021484 -242.27186523 418.09292969 -242.73388672 417.27148438 C-252.93889169 398.9273739 -260.58969133 379.85370208 -266.375 359.6875 C-266.83640381 358.15077637 -266.83640381 358.15077637 -267.30712891 356.58300781 C-269.85116238 347.98819756 -271.8128414 339.3737249 -273.4375 330.5625 C-273.62885025 329.53867722 -273.62885025 329.53867722 -273.82406616 328.49417114 C-276.45696941 314.31006932 -278.20480143 300.06774949 -279.375 285.6875 C-279.46998779 284.54095947 -279.56497559 283.39441895 -279.6628418 282.21313477 C-280.42717379 272.05397363 -280.57570716 261.93394661 -280.5625 251.75 C-280.56189575 250.88199768 -280.5612915 250.01399536 -280.56066895 249.11968994 C-280.4235308 175.85279814 -268.03969802 98.39285696 -215.375 43.6875 C-214.62347656 42.86121094 -213.87195313 42.03492188 -213.09765625 41.18359375 C-193.13510148 19.92432603 -164.33690338 5.80727362 -136.375 -1.3125 C-135.07942381 -1.66144618 -133.78385087 -2.01040442 -132.48828125 -2.359375 C-128.14597409 -3.49222104 -123.77390966 -4.42772126 -119.375 -5.3125 C-118.47749023 -5.49731934 -117.57998047 -5.68213867 -116.65527344 -5.87255859 C-78.72441794 -13.38116408 -36.99523514 -11.15189956 0 0 Z " fill="#FEFEFE" transform="translate(325.375,257.3125)"/>
<path d="M0 0 C0.93070313 0.28875 1.86140625 0.5775 2.8203125 0.875 C20.88284901 7.21670561 32.27284863 22.69630513 40.5703125 39.10546875 C41.85622925 42.03719719 42.96056667 44.97208551 44 48 C44.62648438 49.80210937 44.62648438 49.80210937 45.265625 51.640625 C52.19478828 72.74295853 54.22769307 95.34051771 54.25 117.4375 C54.25100708 118.13665527 54.25201416 118.83581055 54.25305176 119.55615234 C54.24141679 131.57164817 53.41147004 143.2103022 51 155 C50.86078125 155.69367676 50.7215625 156.38735352 50.578125 157.10205078 C46.01566149 179.02194201 37.95672968 201.04903969 23 218 C22.53464844 218.60714844 22.06929687 219.21429687 21.58984375 219.83984375 C12.29536722 231.789885 -2.49136444 239.50485209 -17 243 C-17.71285156 243.185625 -18.42570312 243.37125 -19.16015625 243.5625 C-39.87047906 246.75308618 -60.74591997 243.00407213 -78 231 C-88.14990867 223.27071099 -93.31596543 214.36806913 -99 203 C-99.33 233.03 -99.66 263.06 -100 294 C-118.81 294 -137.62 294 -157 294 C-157 197.97 -157 101.94 -157 3 C-139.51 3 -122.02 3 -104 3 C-104 21.81 -104 40.62 -104 60 C-103.34 60 -102.68 60 -102 60 C-101.89816406 59.3296875 -101.79632812 58.659375 -101.69140625 57.96875 C-98.22110735 43.06803156 -88.80983116 28.44844439 -79 17 C-78.43152344 16.32453125 -77.86304688 15.6490625 -77.27734375 14.953125 C-58.06548905 -6.09425721 -25.68646988 -8.38741874 0 0 Z " fill="#FDFDFD" transform="translate(1242,474)"/>
<path d="M0 0 C16.94504727 -0.40895707 34.05547486 2.53224432 47.28515625 13.875 C59.13946725 25.58914178 64.13598423 40.29755328 67.59765625 56.16015625 C67.94957031 55.22816406 68.30148437 54.29617188 68.6640625 53.3359375 C76.50110758 32.93213135 86.55223189 15.31318455 106.9296875 5.56640625 C125.29061774 -1.92607299 149.16716562 -2.9446302 167.75537109 4.39794922 C183.45774992 11.05634416 193.10710144 21.43655868 199.59765625 37.16015625 C202.85857907 46.89020772 204.76119905 56.6705313 204.71791077 66.94932556 C204.7191924 68.07923215 204.7191924 68.07923215 204.72049993 69.23196512 C204.7221383 71.73922216 204.71666043 74.2464113 204.71118164 76.75366211 C204.71089939 78.55762734 204.71105825 80.36159269 204.71162415 82.16555786 C204.71191063 87.05136127 204.70603788 91.93714004 204.69905019 96.82293773 C204.69279195 101.93319114 204.69221089 107.04344513 204.69102478 112.15370178 C204.68791875 121.82557477 204.67971517 131.49743643 204.66967529 141.16930443 C204.65849155 152.18255677 204.652998 163.19580966 204.64797986 174.20906627 C204.63753196 196.85943732 204.61919552 219.50979285 204.59765625 242.16015625 C185.78765625 242.16015625 166.97765625 242.16015625 147.59765625 242.16015625 C147.57783691 237.62370361 147.55801758 233.08725098 147.53759766 228.41333008 C147.47060185 213.40173651 147.39306119 198.39021097 147.31012917 183.3786974 C147.2601184 174.27990696 147.21367467 165.18112502 147.17578125 156.08227539 C147.1427241 148.14690764 147.10281827 140.2116081 147.05486619 132.27631587 C147.02973688 128.07902301 147.00791645 123.88177461 146.99431229 119.68442726 C146.98136762 115.7240637 146.95918324 111.76385368 146.93027306 107.80357552 C146.9212932 106.35936405 146.91552985 104.91512792 146.91344261 103.47089005 C146.88840136 88.76004142 145.99176294 75.62364927 137.59765625 63.16015625 C131.01228531 56.68100097 123.21704719 55.12260668 114.28515625 54.78515625 C104.20504186 54.97160923 95.29228285 58.65510989 87.59765625 65.16015625 C73.77190196 79.77325417 71.48107731 100.38790349 71.39233398 119.55273438 C71.38273908 120.89380178 71.3727281 122.23486627 71.36233521 123.57592773 C71.33545454 127.19515447 71.31435457 130.81439402 71.29433322 134.43366432 C71.27236896 138.22398805 71.24503166 142.01427304 71.21827698 145.80456543 C71.16849054 152.97246953 71.12349998 160.14039528 71.08025461 167.3083415 C71.03076167 175.47284708 70.9758885 183.63731376 70.92057502 191.80178165 C70.80697082 208.58787187 70.70079548 225.37399798 70.59765625 242.16015625 C51.78765625 242.16015625 32.97765625 242.16015625 13.59765625 242.16015625 C13.58831055 237.54329834 13.57896484 232.92644043 13.56933594 228.16967773 C13.535506 212.88266037 13.48012241 197.59577652 13.41375351 182.30886745 C13.37405279 173.04420646 13.34161495 163.7796293 13.32666016 154.51489258 C13.31359694 146.43369579 13.28651408 138.35268418 13.24304318 130.27159172 C13.22053273 125.99816521 13.20473926 121.72496619 13.2057724 117.45147514 C13.20652524 113.41710494 13.18832821 109.3832356 13.15648842 105.34899521 C13.14807102 103.87982918 13.14618295 102.41060643 13.15185356 100.94142723 C13.19609149 87.70145595 11.86687284 72.65347085 2.15625 62.6796875 C-5.41256781 55.9408706 -13.14858674 54.77628611 -22.921875 54.88671875 C-33.67819701 55.73177211 -42.29333121 60.29769337 -49.3359375 68.37890625 C-63.85152875 87.60816262 -62.87016103 111.59210431 -62.90845466 134.44674492 C-62.91794068 138.24373279 -62.9441508 142.04060773 -62.96846008 145.83752441 C-63.01185106 153.00161894 -63.04056517 160.1656912 -63.06378347 167.32987642 C-63.09098357 175.49702632 -63.13488483 183.66406103 -63.18007219 191.83112812 C-63.27252523 208.60742412 -63.34218095 225.38370865 -63.40234375 242.16015625 C-82.21234375 242.16015625 -101.02234375 242.16015625 -120.40234375 242.16015625 C-120.40234375 164.61015625 -120.40234375 87.06015625 -120.40234375 7.16015625 C-102.58234375 7.16015625 -84.76234375 7.16015625 -66.40234375 7.16015625 C-66.40234375 24.32015625 -66.40234375 41.48015625 -66.40234375 59.16015625 C-65.74234375 59.16015625 -65.08234375 59.16015625 -64.40234375 59.16015625 C-64.29148437 57.99097656 -64.180625 56.82179688 -64.06640625 55.6171875 C-61.94429799 38.80668878 -50.50963988 22.15725319 -37.46484375 11.84765625 C-25.90679339 3.74557739 -13.89700194 0.65416427 0 0 Z " fill="#FCFCFC" transform="translate(828.40234375,469.83984375)"/>
<path d="M0 0 C3.52743738 2.8269891 6.80166754 5.80717242 10 9 C10.69738281 9.68578125 11.39476562 10.3715625 12.11328125 11.078125 C37.91989966 38.13749187 39.7710993 78.9520349 39.24609375 114.11328125 C38.35627867 146.25729755 28.91389823 178.70228438 6 202 C5.24074219 202.77214844 4.48148438 203.54429687 3.69921875 204.33984375 C-18.95400358 226.02909918 -50.28851476 229.66114154 -80.19033813 229.17739868 C-104.39520854 228.63239029 -127.71565259 221.34555038 -146 205 C-146.82113281 204.27296875 -147.64226562 203.5459375 -148.48828125 202.796875 C-164.07653224 188.15410113 -173.83530993 167.80998694 -178 147 C-178.27070313 145.69554932 -178.27070313 145.69554932 -178.546875 144.36474609 C-186.50889235 104.64208016 -185.77283239 55.71075233 -163.18603516 20.69775391 C-159.66133095 15.65230453 -155.36465128 11.3143383 -151 7 C-150.27039063 6.26007813 -149.54078125 5.52015625 -148.7890625 4.7578125 C-113.28300102 -29.16433546 -38.40320127 -28.17284028 0 0 Z " fill="#FDFDFD" transform="translate(628,489)"/>
<path d="M0 0 C1.23814453 -0.02449219 2.47628906 -0.04898438 3.75195312 -0.07421875 C16.54326364 -0.11442193 27.32874697 3.00853991 37.8125 10.375 C38.44800781 10.81457031 39.08351563 11.25414062 39.73828125 11.70703125 C51.06127729 20.41895947 56.7524484 36.00703672 58.57373047 49.74316406 C59.09645629 55.50490676 59.10602577 61.28083356 59.125 67.0625 C59.13047852 68.28557861 59.13595703 69.50865723 59.14160156 70.76879883 C59.08114163 78.49255536 58.35181609 85.80816495 56.8125 93.375 C56.55210937 94.65890625 56.29171875 95.9428125 56.0234375 97.265625 C52.34977582 112.02893831 46.37541606 127.07535051 32.98095703 135.53125 C25.06298199 140.16196496 17.06667566 143.81265908 7.8125 144.375 C5.86923828 144.49488281 5.86923828 144.49488281 3.88671875 144.6171875 C-10.02680788 145.17462046 -22.67220077 142.65297926 -34.1875 134.375 C-35.239375 133.6325 -36.29125 132.89 -37.375 132.125 C-53.69970921 116.1630621 -58.17974855 93.74191423 -58.42871094 71.79492188 C-58.4814766 50.88799425 -56.68287415 30.50871088 -42.19140625 14.1171875 C-30.31919582 2.65887065 -15.83410664 0.01623179 0 0 Z " fill="#010101" transform="translate(556.1875,526.625)"/>
<path d="M0 0 C2.97 0.99 5.94 1.98 9 3 C15.65463192 4.77141932 21.69144315 5.30970506 28.5625 5.25 C29.90344727 5.26160156 29.90344727 5.26160156 31.27148438 5.2734375 C40.58467475 5.24618603 47.96333898 2.71099831 57 0 C57 77.55 57 155.1 57 235 C38.19 235 19.38 235 0 235 C0 157.45 0 79.9 0 0 Z " fill="#FCFCFC" transform="translate(1334,477)"/>
<path d="M0 0 C1.60016968 0.0141394 1.60016968 0.0141394 3.23266602 0.02856445 C14.55335815 0.24582064 23.69875824 2.12615446 33.25 8.375 C34.11625 8.931875 34.9825 9.48875 35.875 10.0625 C49.76902831 23.59089599 54.00367314 43.75387482 54.453125 62.5 C54.71890808 85.69209712 52.31115321 107.18604092 38.25 126.375 C37.79109375 127.02855469 37.3321875 127.68210937 36.859375 128.35546875 C30.28187935 136.9175536 19.68315962 142.28093352 9.25 144.375 C-5.88958665 145.88895867 -20.65253303 143.13681741 -32.75 133.375 C-45.73867889 121.49751988 -49.89685366 103.08137878 -50.87960815 86.14083862 C-51.07268705 81.38967555 -51.12155575 76.64168489 -51.12060547 71.88696289 C-51.12499046 69.44281829 -51.16151213 67.00047003 -51.19921875 64.55664062 C-51.34357988 44.61599167 -46.27768005 26.1453974 -32.10546875 11.4609375 C-22.53902889 2.98916489 -12.55163096 -0.16984217 0 0 Z " fill="#010101" transform="translate(1189.75,526.625)"/>
<path d="M0 0 C1.14621826 0.00684814 2.29243652 0.01369629 3.47338867 0.02075195 C13.01995928 0.20202884 21.41420598 0.90526242 29.3125 6.75 C33.33633932 12.51750303 34.69818488 17.50751782 34.625 24.5 C34.64498047 25.18126953 34.66496094 25.86253906 34.68554688 26.56445312 C34.68064196 31.67047314 33.35633277 34.50377656 30.1875 38.4375 C20.8889382 47.12963385 12.09222363 47.64287846 -0.0625 47.75 C-1.14402344 47.77900391 -2.22554687 47.80800781 -3.33984375 47.83789062 C-13.18211354 47.91506162 -20.82591681 45.65692043 -28.33984375 39.1953125 C-32.42886602 34.31451669 -33.29251565 29.6450918 -33.1875 23.4375 C-33.19910156 22.75171875 -33.21070313 22.0659375 -33.22265625 21.359375 C-33.19095103 15.82153032 -31.84886293 11.91678537 -28.33984375 7.64453125 C-20.12783166 0.44136585 -10.5411643 -0.09612939 0 0 Z " fill="#FCFCFC" transform="translate(1361.8125,411.5625)"/>
</svg>
