<?xml version="1.0" encoding="UTF-8"?>
<svg version="1.1" xmlns="http://www.w3.org/2000/svg" width="1920" height="1080">
<path d="M0 0 C633.6 0 1267.2 0 1920 0 C1920 356.4 1920 712.8 1920 1080 C1286.4 1080 652.8 1080 0 1080 C0 723.6 0 367.2 0 0 Z " fill="#000000" transform="translate(0,0)"/>
<path d="M0 0 C31.68 0 63.36 0 96 0 C104.74404247 18.65395727 113.43465645 37.30407698 121.93359375 56.06640625 C126.25613336 65.59122134 130.63205818 75.09135054 135.02258301 84.58499146 C135.87838433 86.43603536 136.7332924 88.28749253 137.58728027 90.13937378 C138.7808811 92.72692441 139.97782778 95.31289968 141.17578125 97.8984375 C141.71224022 99.06323891 141.71224022 99.06323891 142.25953674 100.25157166 C143.68747323 103.32467959 145.11657039 106.17485558 147 109 C155.95380437 89.70906629 164.90530431 70.41699672 173.79153442 51.09481812 C174.4478126 49.66791576 175.10442156 48.24116548 175.76144409 46.81460571 C182.92866939 31.24903763 189.94662462 15.61818835 197 0 C228.68 0 260.36 0 293 0 C287.38091068 11.23817863 287.38091068 11.23817863 284.5390625 15.96875 C283.9104834 17.0208667 283.2819043 18.0729834 282.63427734 19.15698242 C281.97121582 20.26017822 281.3081543 21.36337402 280.625 22.5 C279.19027123 24.90089391 277.75884245 27.3037452 276.328125 29.70703125 C275.7851326 30.61851677 275.7851326 30.61851677 275.23117065 31.54841614 C271.55539142 37.72856962 267.95856163 43.95347817 264.375 50.1875 C254.1509939 67.96357108 243.78992787 85.65880108 233.41635132 103.34783936 C224.2111868 119.04139126 224.2111868 119.04139126 215.05859375 134.765625 C213.17415667 138.01081662 211.25733905 141.22930754 209.28515625 144.421875 C208.89207275 145.070354 208.49898926 145.71883301 208.09399414 146.38696289 C207.0957962 148.02983497 206.08005206 149.66201332 205.0625 151.29296875 C203.69945054 153.92335897 203.69945054 153.92335897 204.76513672 156.35620117 C205.98616754 158.97038519 207.28877047 161.48865414 208.6953125 164.0078125 C209.50911377 165.46634644 209.50911377 165.46634644 210.33935547 166.9543457 C210.92861816 168.00066162 211.51788086 169.04697754 212.125 170.125 C212.74391113 171.22739014 213.36282227 172.32978027 214.00048828 173.46557617 C219.16694775 182.62089376 224.50777495 191.66705081 229.89282227 200.69555664 C234.70162132 208.77066619 239.41295838 216.89492924 244.0625 225.0625 C244.39359772 225.64405853 244.72469543 226.22561707 245.06582642 226.82479858 C246.39580541 229.16124598 247.72565055 231.49776939 249.05509949 233.83451843 C252.53372155 239.94511751 256.04575184 246.03628798 259.5625 252.125 C260.17456299 253.18477051 260.78662598 254.24454102 261.41723633 255.33642578 C262.65252413 257.47485599 263.88795718 259.61320229 265.12353516 261.75146484 C267.04598288 265.07960554 268.96664246 268.40877192 270.88671875 271.73828125 C271.52786621 272.85001709 272.16901367 273.96175293 272.82958984 275.10717773 C274.094413 277.30059913 275.35906577 279.49411879 276.62353516 281.68774414 C279.53546934 286.73729393 282.4529713 291.78339984 285.38671875 296.8203125 C285.90459961 297.71049072 286.42248047 298.60066895 286.95605469 299.51782227 C287.91968229 301.17304482 288.88508301 302.82723681 289.85253906 304.48022461 C293 309.88893876 293 309.88893876 293 311 C261.32 311 229.64 311 197 311 C187.69567499 292.39134998 187.69567499 292.39134998 184.30078125 285.453125 C183.90322632 284.64128754 183.50567139 283.82945007 183.09606934 282.99301147 C181.83353465 280.41266233 180.57269069 277.83149465 179.3125 275.25 C178.87690765 274.35802917 178.44131531 273.46605835 177.99252319 272.54705811 C170.94534628 258.10487845 164.08835146 243.5897302 157.37988281 228.98730469 C153.98117261 221.62944588 150.48306751 214.31817399 147 207 C141.19895633 218.54849344 135.47539332 230.13315482 129.8125 241.75 C129.19412766 243.01792389 129.19412766 243.01792389 128.56326294 244.3114624 C122.27896081 257.20723995 116.13453348 270.15669258 110.15234375 283.1953125 C105.8426078 292.49836085 101.40803611 301.74312417 97 311 C64.99 311 32.98 311 0 311 C3.95785299 303.74393619 7.9325438 296.50647166 12 289.3125 C12.83748779 287.83100464 12.83748779 287.83100464 13.69189453 286.31958008 C18.27228605 278.23980005 22.93501451 270.20997522 27.62695312 262.19458008 C31.9473334 254.81313655 36.23204326 247.41186752 40.5 240 C45.3083918 231.65194261 50.13909707 223.31759074 55 215 C61.15645373 204.46262425 67.2763155 193.90473215 73.3515625 183.3203125 C75.74946958 179.14797979 78.18274148 174.99979538 80.6484375 170.8671875 C81.21481934 169.90707764 81.78120117 168.94696777 82.36474609 167.95776367 C83.42633893 166.15933222 84.49898618 164.36736354 85.58447266 162.58325195 C86.05159668 161.7862085 86.5187207 160.98916504 87 160.16796875 C87.4125 159.47985107 87.825 158.7917334 88.25 158.08276367 C89.2480454 155.3111734 88.86361017 153.79487772 88 151 C86.93416233 148.75042464 86.93416233 148.75042464 85.55078125 146.54296875 C85.03999023 145.69081787 84.52919922 144.83866699 84.00292969 143.96069336 C83.44508789 143.04553955 82.88724609 142.13038574 82.3125 141.1875 C81.11513367 139.19315948 79.91854476 137.19835204 78.72265625 135.203125 C78.10406738 134.17509766 77.48547852 133.14707031 76.84814453 132.08789062 C73.93996985 127.22889547 71.09514598 122.33357842 68.25 117.4375 C63.01593757 108.44893493 57.76311515 99.47156754 52.5 90.5 C47.32215443 81.67315356 42.15273121 72.84154224 37 64 C31.82313762 55.11875177 26.63490355 46.24423788 21.4375 37.375 C20.90239304 36.46155823 20.90239304 36.46155823 20.35647583 35.52966309 C16.59654071 29.11229081 12.8274119 22.7007258 9.03125 16.3046875 C8.42224854 15.27811035 7.81324707 14.2515332 7.18579102 13.19384766 C6.04506903 11.27305088 4.90241655 9.3533989 3.75756836 7.43505859 C3.25878174 6.59539551 2.75999512 5.75573242 2.24609375 4.890625 C1.80966553 4.15875977 1.3732373 3.42689453 0.92358398 2.67285156 C0 1 0 1 0 0 Z " fill="#FEFEFE" transform="translate(929,368)"/>
<path d="M0 0 C20.79 0 41.58 0 63 0 C63.01458252 6.50025879 63.02916504 13.00051758 63.04418945 19.69775391 C63.09454408 41.1833803 63.16099145 62.66893471 63.23571491 84.15448952 C63.28062379 97.1801332 63.3200498 110.20574985 63.34643555 123.23144531 C63.36945534 134.58855152 63.40289786 145.9455718 63.44870156 157.3026098 C63.47258001 163.31250735 63.49134403 169.32232009 63.49761391 175.33226395 C63.50368907 180.9974015 63.52377656 186.66232217 63.55427551 192.32737923 C63.56301686 194.39845711 63.56678648 196.46956338 63.56500816 198.54065895 C63.55308233 218.85189685 65.87012278 240.63326589 80.18359375 256.40625 C95.90316975 271.49704296 116.94111136 274.48084909 137.8828125 274.21484375 C154.44848761 273.7196574 172.38822546 268.33845394 184.47265625 256.59765625 C193.80712415 245.98534801 197.5703095 233.68667382 200 220 C200.17293548 219.29266377 200.34587095 218.58532755 200.5240469 217.85655689 C201.169318 213.98379376 201.15356059 210.15085231 201.15821838 206.23649597 C201.16315636 205.35426009 201.16809434 204.47202421 201.17318195 203.56305391 C201.18853782 200.60738612 201.19691242 197.65174003 201.20532227 194.69604492 C201.21490229 192.57710581 201.22491244 190.4581686 201.23532104 188.3392334 C201.26236269 182.58559294 201.2833763 176.83194428 201.30332303 171.07827544 C201.32518711 165.06578435 201.35257375 159.0533185 201.37937927 153.04084778 C201.42930042 141.65479462 201.47424142 130.26872744 201.51740164 118.88264686 C201.56677893 105.92024573 201.62169524 92.95786993 201.67708123 79.99549329 C201.79089242 53.33035133 201.89700214 26.66518608 202 0 C222.79 0 243.58 0 265 0 C265.09056042 28.53071169 265.16413283 57.06130563 265.20724869 85.59212494 C265.22780701 98.8417427 265.25579788 112.0912643 265.30175781 125.34082031 C265.34183273 136.89940095 265.36748161 148.45791189 265.37635398 160.01656008 C265.38153397 166.12745584 265.39356601 172.23815235 265.42292023 178.34898376 C265.45041693 184.12082717 265.45837706 189.89239251 265.45243073 195.6642952 C265.45351586 197.76345464 265.46126284 199.86262508 265.4768219 201.96172714 C265.72166817 236.75143581 258.32186512 272.33314414 233.4375 298.0625 C222.70070565 308.70171826 210.02612553 315.64824691 196 321 C195.06438232 321.36134033 195.06438232 321.36134033 194.10986328 321.72998047 C178.08409052 327.80552336 161.13684552 330.08672895 144.05859375 330.23828125 C143.14096252 330.24802979 142.2233313 330.25777832 141.27789307 330.26782227 C102.71268331 330.59356258 102.71268331 330.59356258 84 326 C83.25733887 325.82339844 82.51467773 325.64679688 81.74951172 325.46484375 C65.38069712 321.40925307 49.92169168 313.79559864 37 303 C36.13890625 302.32839844 35.2778125 301.65679688 34.390625 300.96484375 C16.29021826 286.08820226 6.39013756 260.84216535 2.375 238.4375 C2.1903418 237.41197021 2.1903418 237.41197021 2.00195312 236.36572266 C0.52017871 227.74318729 -0.15105919 219.19005172 -0.12025452 210.44540405 C-0.12110894 209.53847829 -0.12196337 208.63155252 -0.12284368 207.69714415 C-0.12447796 204.68788657 -0.11901103 201.67868595 -0.11352539 198.66943359 C-0.11324305 196.50049847 -0.11340217 194.33156325 -0.1139679 192.16262817 C-0.11425404 186.29563043 -0.10838691 180.42865326 -0.10139394 174.56166029 C-0.09512991 168.42242507 -0.09455419 162.28318934 -0.09336853 156.14395142 C-0.0902642 144.52784264 -0.08206293 132.91174331 -0.07201904 121.29563868 C-0.06083 108.06712284 -0.05534042 94.83860655 -0.05032361 81.61008716 C-0.03987956 54.40671833 -0.02154525 27.20336245 0 0 Z " fill="#FEFEFE" transform="translate(1431,383)"/>
<path d="M0 0 C1.30445068 0.29801514 1.30445068 0.29801514 2.63525391 0.60205078 C15.31338849 3.56360978 26.71642622 7.48961675 38 14 C38.99128906 14.55429687 39.98257813 15.10859375 41.00390625 15.6796875 C48.50850921 20.14188385 54.87110593 25.82381508 61 32 C61.54018265 32.52527283 62.0803653 33.05054565 62.63691711 33.59173584 C64.7433204 37.31328176 64.39302614 40.87863587 64.34057617 45.08300781 C64.34101425 46.00042755 64.34145233 46.91784729 64.34190369 47.86306763 C64.33981485 50.89330377 64.31647908 53.92298559 64.29296875 56.953125 C64.28737314 59.05490822 64.28310288 61.15669535 64.28010559 63.25848389 C64.26865411 68.78892835 64.23918413 74.31913627 64.20599365 79.8494873 C64.17529943 85.49337565 64.16160163 91.13730224 64.14648438 96.78125 C64.11431488 107.85427057 64.0631147 118.92711561 64 130 C61.15101022 127.25932725 59.12402844 124.30161827 56.9375 121 C43.62516999 101.47050827 25.86673806 88.95688134 3 83 C-1.34967608 82.29576673 -5.59825202 82.07641924 -10 82 C-11.27875 81.94972656 -12.5575 81.89945312 -13.875 81.84765625 C-31.29093751 81.32098583 -47.28320564 85.43170489 -60.4375 97.25 C-76.87782381 112.80505503 -83.57232388 136.22494387 -84.22265625 158.2578125 C-84.69547404 184.207598 -82.01790994 211.77453435 -63.59130859 231.71166992 C-55.5199965 239.87839713 -45.25117239 244.87282522 -34 247 C-32.70449219 247.27457031 -32.70449219 247.27457031 -31.3828125 247.5546875 C-7.85982081 250.65124761 15.89546755 246.64299493 35 232 C45.21589248 223.44218431 54.90364807 213.96605369 61.94140625 202.58203125 C62.29074219 202.05996094 62.64007813 201.53789063 63 201 C63.33 201 63.66 201 64 201 C64.30246157 211.35301736 64.5328123 221.70496893 64.67355824 232.06151962 C64.74114623 236.87187493 64.83264691 241.67918853 64.98071289 246.48779297 C65.12296144 251.13707094 65.19988977 255.78344312 65.23340416 260.43473053 C65.25725362 262.20040884 65.30383315 263.96594439 65.37449074 265.73036957 C65.93151435 280.22929311 65.93151435 280.22929311 61.15959167 285.73077393 C58.01343656 288.84972474 54.61001622 291.43964012 51 294 C50.27292847 294.5664624 49.54585693 295.1329248 48.79675293 295.71655273 C33.11630422 307.67714392 14.7666617 314.56737042 -4 320 C-4.72703125 320.21060059 -5.4540625 320.42120117 -6.203125 320.63818359 C-16.45535924 323.41910213 -27.01773734 323.29733411 -37.5625 323.375 C-38.25552216 323.38321777 -38.94854431 323.39143555 -39.66256714 323.39990234 C-53.16930922 323.51825452 -66.24174586 321.74890271 -79.0625 317.3125 C-79.80725586 317.05686279 -80.55201172 316.80122559 -81.31933594 316.5378418 C-110.04288077 306.2816165 -131.52345609 283.99720089 -145 257 C-150.65286651 244.47254968 -154.73747772 231.33259421 -158 218 C-158.36774536 216.52152588 -158.36774536 216.52152588 -158.74291992 215.01318359 C-168.51186859 174.47915625 -167.56694942 125.84977942 -155 86 C-154.75411133 85.21947266 -154.50822266 84.43894531 -154.25488281 83.63476562 C-148.31675949 65.32120586 -139.82907954 48.43918787 -127 34 C-125.79923828 32.64841797 -125.79923828 32.64841797 -124.57421875 31.26953125 C-104.87126578 10.47017827 -79.56599788 2.36276378 -52 -2 C-50.41638672 -2.28037109 -50.41638672 -2.28037109 -48.80078125 -2.56640625 C-32.63521381 -4.41057684 -15.83539158 -3.73644071 0 0 Z " fill="#FDFDFD" transform="translate(229,387)"/>
<path d="M0 0 C23.1 0 46.2 0 70 0 C67.77358491 10.01886792 67.77358491 10.01886792 66.25 14.75 C64.67021708 19.76050554 63.20025401 24.79064252 61.77978516 29.84863281 C59.72351976 37.16981317 57.62544679 44.39431624 54.921875 51.5078125 C52.09987096 59.13678951 49.98856561 67.0199255 47.78417969 74.84423828 C45.71969609 82.16505652 43.62619509 89.39234735 40.921875 96.5078125 C38.09987096 104.13678951 35.98856561 112.0199255 33.78417969 119.84423828 C31.71969609 127.16505652 29.62619509 134.39234735 26.921875 141.5078125 C24.09987096 149.13678951 21.98856561 157.0199255 19.78417969 164.84423828 C17.71969609 172.16505652 15.62619509 179.39234735 12.921875 186.5078125 C10.09987096 194.13678951 7.98856561 202.0199255 5.78417969 209.84423828 C3.71891245 217.16783538 1.62565863 224.39826876 -1.08203125 231.515625 C-2.70684211 235.91298547 -4.01744001 240.40742075 -5.36669922 244.89550781 C-6.69449707 249.3078507 -8.03531777 253.71625391 -9.375 258.125 C-9.82685669 259.61253784 -9.82685669 259.61253784 -10.2878418 261.13012695 C-12.9005466 269.71253816 -15.59375953 278.26798214 -18.30908203 286.81835938 C-19.61123992 290.93004943 -20.89584248 295.04722022 -22.1784668 299.16503906 C-23.18113275 302.38351258 -24.18896011 305.60010085 -25.2109375 308.8125 C-27.63048991 316.44413935 -29.89489815 324.10524464 -32.0625 331.8125 C-33.84616217 338.14407803 -35.73968341 344.35502766 -38.078125 350.5078125 C-40.90012904 358.13678951 -43.01143439 366.0199255 -45.21582031 373.84423828 C-47.28030391 381.16505652 -49.37380491 388.39234735 -52.078125 395.5078125 C-54.90012904 403.13678951 -57.01143439 411.0199255 -59.21582031 418.84423828 C-61.27608387 426.15009194 -63.35585835 433.36793203 -66.06640625 440.46484375 C-68.30479868 446.54315624 -70.06143787 452.79809113 -71.8828125 459.01171875 C-72.14835937 459.91535156 -72.41390625 460.81898438 -72.6875 461.75 C-72.91824219 462.54921875 -73.14898438 463.3484375 -73.38671875 464.171875 C-74 466 -74 466 -75 467 C-77.14743549 467.09425595 -79.29801026 467.11742648 -81.44750977 467.11352539 C-82.45722336 467.11374443 -82.45722336 467.11374443 -83.48733521 467.1139679 C-85.72205784 467.11326878 -87.9566981 467.10547652 -90.19140625 467.09765625 C-91.73697362 467.09579206 -93.28254157 467.09436816 -94.82810974 467.09336853 C-98.90357077 467.0895434 -102.97899637 467.07971317 -107.05444336 467.06866455 C-111.21011882 467.05845032 -115.36579999 467.05387089 -119.52148438 467.04882812 C-127.68100587 467.03809089 -135.84049853 467.02101454 -144 467 C-143.44889945 462.6707564 -142.71493795 458.60910754 -141.42114258 454.44213867 C-141.10023148 453.39962448 -140.77932037 452.35711029 -140.44868469 451.28300476 C-140.10081406 450.17254288 -139.75294342 449.06208099 -139.39453125 447.91796875 C-139.03284348 446.74978104 -138.6711557 445.58159332 -138.29850769 444.37800598 C-137.53182 441.90528249 -136.76258054 439.43334895 -135.9909668 436.9621582 C-134.82893438 433.24013972 -133.67448305 429.51584121 -132.52148438 425.79101562 C-129.38337227 415.67824794 -126.2329698 405.57597371 -122.82421875 395.55078125 C-120.81820438 389.63769744 -119.02310512 383.69337716 -117.34375 377.6796875 C-114.64604566 368.0447206 -111.70770285 358.49291748 -108.71875 348.9453125 C-108.4755559 348.16840939 -108.23236179 347.39150627 -107.98179817 346.59106064 C-106.69687071 342.48882077 -105.40964123 338.38730756 -104.12112427 334.28619385 C-101.6093301 326.29157742 -99.10612834 318.29426845 -96.60232735 310.29714584 C-96.03049268 308.47081563 -95.45856624 306.64451415 -94.886549 304.81824112 C-89.30452231 286.9963348 -83.76372775 269.16183161 -78.24221802 251.32109451 C-77.33800123 248.39966906 -76.43339174 245.47836527 -75.52879524 242.55705738 C-71.81626423 230.56754259 -68.10623099 218.57725547 -64.39794922 206.58642578 C-62.51989399 200.51372641 -60.64045576 194.4414568 -58.75951099 188.36965179 C-57.80001525 185.27210108 -56.84144895 182.174268 -55.88430786 179.07598877 C-49.37897854 158.01829028 -49.37897854 158.01829028 -45.875 147.70703125 C-43.86797117 141.78656271 -42.06536768 135.83783842 -40.38671875 129.81640625 C-37.56312734 119.72088188 -34.46419042 109.71782655 -31.33203125 99.71484375 C-31.07165951 98.88311268 -30.81128777 98.05138161 -30.54302597 97.19444656 C-28.91161755 91.98588027 -27.27649272 86.77848592 -25.64013672 81.57147217 C-23.46911347 74.66214264 -21.30144873 67.75175942 -19.13549423 60.84083939 C-18.6014448 59.13692344 -18.06721786 57.43306312 -17.53281021 55.72925949 C-13.06264318 41.47321724 -8.67442276 27.19310294 -4.34712219 12.89305115 C-4.01824603 11.80962213 -4.01824603 11.80962213 -3.68272591 10.70430565 C-3.09379635 8.76397614 -2.50681043 6.823057 -1.91996765 4.88209534 C-1 2 -1 2 0 0 Z " fill="#FDFDFD" transform="translate(1373,247)"/>
<path d="M0 0 C1.4072937 0.00845947 1.4072937 0.00845947 2.84301758 0.01708984 C14.72143684 0.2253204 24.77923178 2.94906685 33.78125 11.09375 C51.65654307 30.2234496 53.75292669 58.56228783 52.96044922 83.37353516 C51.83636194 105.70317657 44.59238061 129.77140252 27.8125 145.3125 C18.41291613 152.75646575 9.32662578 155.48942249 -2.5625 155.5 C-3.27921875 155.51224609 -3.9959375 155.52449219 -4.734375 155.53710938 C-15.1333979 155.56526557 -24.64395424 152.07301981 -32.875 145.6875 C-36.1875 142.3125 -36.1875 142.3125 -43.1875 131.3125 C-43.5175 149.4625 -43.8475 167.6125 -44.1875 186.3125 C-55.7375 186.3125 -67.2875 186.3125 -79.1875 186.3125 C-79.1875 126.2525 -79.1875 66.1925 -79.1875 4.3125 C-68.2975 4.3125 -57.4075 4.3125 -46.1875 4.3125 C-45.8575 15.2025 -45.5275 26.0925 -45.1875 37.3125 C-43.99125 34.8375 -42.795 32.3625 -41.5625 29.8125 C-38.61340206 23.85387424 -35.64076417 18.30342861 -31.1875 13.3125 C-30.64480469 12.68988281 -30.10210938 12.06726563 -29.54296875 11.42578125 C-25.59415091 7.17389387 -21.58084623 4.43959543 -16.1875 2.3125 C-14.89585937 1.77496094 -14.89585937 1.77496094 -13.578125 1.2265625 C-9.01158597 -0.00450908 -4.70984354 -0.02925628 0 0 Z " fill="#FDFDFD" transform="translate(797.1875,523.6875)"/>
<path d="M0 0 C1.04736328 -0.02900391 2.09472656 -0.05800781 3.17382812 -0.08789062 C14.29151205 -0.17771654 22.13755257 2.98979451 30.16796875 10.69140625 C36.4050301 17.89462169 39.39551968 25.82494874 39.4375 35.3125 C40.0975 35.3125 40.7575 35.3125 41.4375 35.3125 C41.47875 34.384375 41.52 33.45625 41.5625 32.5 C43.01806749 22.74376386 50.17533775 13.60637395 57.4375 7.3125 C66.43566472 1.80616039 73.56152622 0.0937588 83.9375 0 C84.97648438 -0.02900391 86.01546875 -0.05800781 87.0859375 -0.08789062 C97.94662472 -0.17591365 107.45298306 2.7491444 115.4375 10.3125 C122.80501195 18.09026783 126.56920752 28.69279489 126.55775452 39.35554504 C126.55981651 40.84253906 126.55981651 40.84253906 126.56192017 42.35957336 C126.55832489 43.43563339 126.55472961 44.51169342 126.55102539 45.62036133 C126.55117142 46.76225922 126.55131744 47.9041571 126.5514679 49.08065796 C126.55077168 52.85196843 126.54299285 56.62322941 126.53515625 60.39453125 C126.53329104 63.01055372 126.53186762 65.62657654 126.53086853 68.24259949 C126.52776356 74.42252778 126.51956141 80.60243833 126.50951904 86.78235883 C126.498332 93.81982329 126.49284093 100.85728862 126.48782361 107.89475977 C126.4773781 122.36735029 126.45904299 136.83992162 126.4375 151.3125 C114.5575 151.3125 102.6775 151.3125 90.4375 151.3125 C90.41562622 146.88469116 90.41562622 146.88469116 90.39331055 142.36743164 C90.34289355 132.59645594 90.2762858 122.82563841 90.20178509 113.05481815 C90.15712542 107.13283216 90.11785942 101.21091427 90.09106445 95.28881836 C90.06498782 89.56987496 90.02455412 83.85119424 89.97431374 78.13241386 C89.95767458 75.95446486 89.94614198 73.77647045 89.93988609 71.59846687 C89.93021305 68.53940652 89.90211486 65.48101374 89.86987305 62.42211914 C89.87130814 61.52875351 89.87274323 60.63538788 89.8742218 59.71495056 C89.7438017 50.92149306 87.83489175 43.55757289 81.4375 37.3125 C75.00865273 34.04758804 66.85900292 34.21234652 59.95703125 35.9296875 C52.76482654 39.07366867 49.06077775 45.4505594 46.125 52.4375 C43.61215934 58.90514896 43.28138665 65.22075966 43.23217773 72.07177734 C43.22227814 72.93096771 43.21237854 73.79015808 43.20217896 74.67538452 C43.17073068 77.49970801 43.1458728 80.32404829 43.12109375 83.1484375 C43.10050981 85.11284814 43.07951296 87.07725449 43.05812073 89.04165649 C43.00304878 94.2003837 42.95357414 99.35914988 42.90527344 104.51794434 C42.85494951 109.78673758 42.7993204 115.05547452 42.74414062 120.32421875 C42.6367411 130.65359943 42.53574655 140.9830282 42.4375 151.3125 C30.5575 151.3125 18.6775 151.3125 6.4375 151.3125 C6.41768066 148.42121338 6.39786133 145.52992676 6.37744141 142.55102539 C6.31042255 132.9796468 6.23278472 123.40837533 6.14997292 113.83712101 C6.10010682 108.03621355 6.053776 102.23532345 6.015625 96.43432617 C5.97864978 90.8321419 5.93225681 85.23010635 5.87943649 79.62804985 C5.86095747 77.49475155 5.84582576 75.36142144 5.83415604 73.22807503 C5.8171822 70.23140479 5.78812075 67.23507038 5.75634766 64.23852539 C5.75418747 63.36386124 5.75202728 62.48919708 5.74980164 61.58802795 C5.65261778 54.37511874 5.23629244 46.69907814 0.5625 40.875 C0.07007813 40.23691406 -0.42234375 39.59882812 -0.9296875 38.94140625 C-4.81347625 35.06690886 -8.43768101 34.991901 -13.8125 34.9375 C-21.84690158 34.97423974 -26.62935814 36.37935814 -32.3125 42.0625 C-41.46828995 55.28752992 -40.87966496 69.77250016 -40.9765625 85.296875 C-40.99530663 87.20787359 -41.01488237 89.11886419 -41.0352478 91.02984619 C-41.08623253 96.02078504 -41.1260368 101.01175063 -41.16339111 106.00280762 C-41.20364364 111.11131215 -41.25463825 116.21970872 -41.3046875 121.328125 C-41.40104747 131.32284778 -41.48458324 141.31761641 -41.5625 151.3125 C-53.4425 151.3125 -65.3225 151.3125 -77.5625 151.3125 C-77.5625 102.8025 -77.5625 54.2925 -77.5625 4.3125 C-66.3425 4.3125 -55.1225 4.3125 -43.5625 4.3125 C-43.0675 18.6675 -43.0675 18.6675 -42.5625 33.3125 C-40.9125 29.3525 -39.2625 25.3925 -37.5625 21.3125 C-28.82202584 6.49169598 -17.05632926 0.15347627 0 0 Z " fill="#FCFCFC" transform="translate(558.5625,523.6875)"/>
<path d="M0 0 C14.8048473 14.39360154 20.27066595 33.08078862 20.703125 53.37890625 C20.97250484 80.03378394 20.97250484 80.03378394 17.5 91.5625 C17.32307617 92.18608398 17.14615234 92.80966797 16.96386719 93.45214844 C12.37366177 109.50597566 4.34292567 123.2163282 -10.328125 131.9609375 C-30.227281 142.0085409 -54.03209848 144.09115836 -75.5 137.5625 C-90.94275262 131.89880984 -102.73177523 120.85581693 -109.75 106.0625 C-116.02683686 91.67251762 -117.91994319 78.24796145 -117.875 62.625 C-117.8737915 61.85070648 -117.87258301 61.07641296 -117.87133789 60.27865601 C-117.78194564 39.16818523 -115.31369713 17.36323261 -99.73828125 1.515625 C-74.33469499 -20.65155323 -25.90365956 -22.38540132 0 0 Z " fill="#FDFDFD" transform="translate(434.5,538.4375)"/>
<path d="M0 0 C20.46 0 40.92 0 62 0 C62 81.18 62 162.36 62 246 C41.54 246 21.08 246 0 246 C0 164.82 0 83.64 0 0 Z " fill="#FDFDFD" transform="translate(1772,463)"/>
<path d="M0 0 C6.27675824 5.65449341 9.74328276 13.30392195 11.125 21.5703125 C11.34447111 25.81809283 11.31013201 30.06739978 11.3125 34.3203125 C11.32474609 35.46242188 11.33699219 36.60453125 11.34960938 37.78125 C11.37197336 50.75236141 8.8659894 64.31049003 -0.33203125 74.125 C-8.4690333 81.78559678 -17.07629355 83.15314676 -27.89428711 83.04516602 C-37.06494086 82.71676546 -44.39261313 80.34735332 -50.875 73.5703125 C-56.11239635 66.54325307 -58.65442102 58.97434987 -60.875 50.5703125 C-61.0507959 49.95325439 -61.2265918 49.33619629 -61.40771484 48.70043945 C-64.51728714 34.52540376 -62.54909599 18.07985641 -55.1875 5.6328125 C-50.30402713 -1.10985055 -42.86307067 -5.43207337 -34.75 -7.0546875 C-22.43208085 -8.24674419 -10.17593127 -7.75914759 0 0 Z " fill="#010101" transform="translate(410.875,566.4296875)"/>
<path d="M0 0 C3.3 0.99 6.6 1.98 10 3 C13.98452082 3.42775395 13.98452082 3.42775395 17.75 3.3125 C19.59851563 3.30669922 19.59851563 3.30669922 21.484375 3.30078125 C24.97421692 3.00220589 27.71252496 2.15245284 31 1 C32.32 1 33.64 1 35 1 C35 49.18 35 97.36 35 147 C23.45 147 11.9 147 0 147 C0 98.49 0 49.98 0 0 Z " fill="#FEFEFE" transform="translate(874,528)"/>
<path d="M0 0 C8.21449708 3.9760927 12.88596694 9.05117173 16.4921875 17.3984375 C22.51469394 35.55932902 21.21854521 56.31530476 12.75 73.4375 C8.84236036 80.03532372 3.42108382 85.63022333 -4.0390625 88.00390625 C-13.84115538 89.73094166 -24.07157709 89.50883451 -32.609375 84.1015625 C-40.1586138 78.28354012 -44.13365221 69.80131742 -45.875 60.5625 C-47.95497213 42.78624333 -48.45628586 23.52913019 -37.5 8.4375 C-27.42698871 -1.59881544 -13.51716909 -4.8619895 0 0 Z " fill="#010101" transform="translate(797.5,560.5625)"/>
<path d="M0 0 C7.35056037 5.22969976 12.69232125 13.46395492 14.25 22.375 C14.94467209 30.23164346 14.55367472 37.17060092 11.25 44.375 C10.72212891 45.53322266 10.72212891 45.53322266 10.18359375 46.71484375 C5.72077194 55.56684344 -1.54442737 61.22929205 -10.890625 64.4609375 C-21.50175614 66.97410014 -35.24092423 67.1579489 -44.75 61.375 C-53.34755569 55.09305264 -58.40590266 48.40729202 -61.75 38.375 C-62.47845959 24.9965594 -61.58762521 15.1271217 -52.75 4.375 C-38.05698049 -10.17481269 -17.09038159 -10.09364819 0 0 Z " fill="#FCFCFC" transform="translate(1826.75,367.625)"/>
<path d="M0 0 C1.23073242 -0.02416992 1.23073242 -0.02416992 2.48632812 -0.04882812 C8.99185364 -0.05402008 13.8293802 1.01092543 18.9375 5.3125 C22.29434382 9.44400008 22.0548707 14.23660568 21.5625 19.3125 C19.3620586 24.52407174 15.72907249 27.40976146 10.5625 29.5625 C2.31200951 31.56207302 -7.90141997 31.56724519 -15.4375 27.3125 C-18.43359132 24.61169653 -21.21921708 21.44915397 -21.640625 17.32421875 C-21.73907404 12.44278719 -21.59177026 9.28454403 -18.4375 5.3125 C-18.004375 4.755625 -17.57125 4.19875 -17.125 3.625 C-12.12621544 -0.26294355 -6.01927651 -0.02353118 0 0 Z " fill="#F9F9F9" transform="translate(891.4375,486.6875)"/>
</svg>
