<?xml version="1.0" encoding="UTF-8"?>
<svg version="1.1" xmlns="http://www.w3.org/2000/svg" width="666" height="375">
<path d="M0 0 C1.2375 0.07863281 2.475 0.15726562 3.75 0.23828125 C7 0.6875 7 0.6875 10 2.6875 C7.45855878 11.24161923 4.00440623 18.96866809 -1.1875 26.25 C-3.78560116 29.99840549 -4.73554596 33.13680003 -5.53125 37.58203125 C-6.30021728 41.03597595 -8.07621961 43.77879013 -10 46.6875 C-10.53367187 47.51378906 -11.06734375 48.34007812 -11.6171875 49.19140625 C-15.64627859 55.33535221 -19.83839195 61.36412315 -24.0625 67.375 C-24.83352051 68.4736438 -24.83352051 68.4736438 -25.62011719 69.59448242 C-28.36729317 73.47898222 -31.20349466 77.21672178 -34.25 80.875 C-37.05987751 84.36890497 -37.09753802 86.20075098 -37 90.6875 C-38.70228777 93.31137115 -40.80713413 95.46871373 -43 97.6875 C-43.86625 98.615625 -44.7325 99.54375 -45.625 100.5 C-48 102.6875 -48 102.6875 -50.1875 103.75 C-52.57530565 104.98507189 -52.83610897 106.29125377 -54 108.6875 C-56.53606676 111.43490566 -59.16511745 113.82228975 -62.0625 116.1875 C-64.81245111 118.52788392 -66.7982897 120.84658348 -69 123.6875 C-71.625 126.5 -71.625 126.5 -74 128.6875 C-74.66 128.6875 -75.32 128.6875 -76 128.6875 C-75.10138423 134.75315647 -70.36688577 138.42162018 -65.8125 142.0625 C-64.83925781 142.84109375 -63.86601562 143.6196875 -62.86328125 144.421875 C-61.44595703 145.54335938 -61.44595703 145.54335938 -60 146.6875 C-59.23042969 147.31140625 -58.46085938 147.9353125 -57.66796875 148.578125 C-53.03405131 152.28525895 -48.22405447 155.50758915 -43.1953125 158.65234375 C-39.18935894 161.20381295 -35.24358826 163.83500255 -31.3125 166.5 C-30.59247803 166.98049805 -29.87245605 167.46099609 -29.13061523 167.95605469 C-27.3836179 169.14764091 -25.68639803 170.41159283 -24 171.6875 C-24 172.3475 -24 173.0075 -24 173.6875 C-23.42894531 173.92984375 -22.85789062 174.1721875 -22.26953125 174.421875 C-19.57645652 175.92369292 -17.81860376 177.71176463 -15.6875 179.9375 C-12.88068057 182.82796637 -10.06952401 185.52887082 -6.9375 188.0625 C-5.4834375 189.361875 -5.4834375 189.361875 -4 190.6875 C-4 191.6775 -4 192.6675 -4 193.6875 C-3.28714844 193.86925781 -2.57429688 194.05101562 -1.83984375 194.23828125 C3.67377458 195.68532778 8.83338642 197.27641366 14 199.6875 C13.690625 201.2653125 13.690625 201.2653125 13.375 202.875 C13.00036896 206.68374887 13.28369933 208.35585752 15 211.6875 C13.68 213.0075 12.36 214.3275 11 215.6875 C11.66 217.0075 12.32 218.3275 13 219.6875 C9.14522751 222.25734833 5.47959418 223.54564266 1 224.6875 C1 225.6775 1 226.6675 1 227.6875 C2.98 228.3475 4.96 229.0075 7 229.6875 C4.44959413 232.23790587 3.01874523 232.68556084 -0.625 233.0625 C-5.67949966 232.86666145 -10.2212755 231.22723416 -15 229.6875 C-21.36198906 227.75010416 -26.88661772 226.54278785 -33.5625 226.875 C-40.70622379 227.07177323 -45.14110996 224.51758346 -51 220.6875 C-52.16120078 220.01135777 -53.32722634 219.34336394 -54.5 218.6875 C-56.49746481 217.54609154 -58.49308605 216.40219235 -60.484375 215.25 C-65.06795104 212.66040901 -69.51406337 210.39696399 -74.5 208.6875 C-84.54778884 205.20502773 -93.92812097 199.61963596 -102 192.6875 C-102 192.0275 -102 191.3675 -102 190.6875 C-102.57886963 190.43822754 -103.15773926 190.18895508 -103.75415039 189.93212891 C-106.3167478 188.51196132 -107.92907766 186.90652671 -109.93359375 184.7734375 C-110.66513672 184.01289063 -111.39667969 183.25234375 -112.15039062 182.46875 C-113.67718788 180.86241847 -115.19802589 179.25040197 -116.71289062 177.6328125 C-117.44572266 176.87484375 -118.17855469 176.116875 -118.93359375 175.3359375 C-119.9244397 174.28672119 -119.9244397 174.28672119 -120.93530273 173.21630859 C-122.92667663 171.49111953 -122.92667663 171.49111953 -125.58618164 171.30322266 C-129.1581142 171.87187056 -130.60696669 174.10043697 -133 176.6875 C-133.66 176.6875 -134.32 176.6875 -135 176.6875 C-135 177.3475 -135 178.0075 -135 178.6875 C-135.66 178.6875 -136.32 178.6875 -137 178.6875 C-137.226875 179.244375 -137.45375 179.80125 -137.6875 180.375 C-140.60390007 185.51341917 -145.52468425 188.95807021 -150 192.6875 C-151.67796571 194.3427905 -153.34299493 196.01122743 -155 197.6875 C-155.97850529 198.6673276 -156.95769231 199.64647478 -157.9375 200.625 C-158.44023437 201.12773437 -158.94296875 201.63046875 -159.4609375 202.1484375 C-164.0625 206.75 -164.0625 206.75 -165.5534668 208.23461914 C-166.95301452 209.64030834 -168.33047009 211.06788672 -169.70703125 212.49609375 C-172 214.6875 -172 214.6875 -174.6875 215.75 C-177.57655467 216.92123838 -177.71924669 217.95522627 -179 220.6875 C-180.32520503 221.37018138 -181.65812182 222.0382041 -183 222.6875 C-183.33 223.6775 -183.66 224.6675 -184 225.6875 C-186.1796875 227.765625 -186.1796875 227.765625 -188.875 229.9375 C-189.75929688 230.66453125 -190.64359375 231.3915625 -191.5546875 232.140625 C-192.36164063 232.65109375 -193.16859375 233.1615625 -194 233.6875 C-194.99 233.3575 -195.98 233.0275 -197 232.6875 C-195.44165785 228.86247835 -192.92784104 226.53966179 -190 223.6875 C-196.72768155 228.93191318 -202.92387289 234.40158212 -208.85058594 240.52441406 C-212.6176236 244.40004169 -216.27307612 247.77117305 -221.0625 250.3125 C-224.69692484 252.31222721 -227.7838036 254.8926678 -230.9375 257.5625 C-231.46158447 258.00513184 -231.98566895 258.44776367 -232.52563477 258.90380859 C-233.29991821 259.55857178 -233.29991821 259.55857178 -234.08984375 260.2265625 C-242.58335847 267.40899777 -251.66288824 274.25774555 -263 275.6875 C-263.99 274.2025 -263.99 274.2025 -265 272.6875 C-263.35 272.0275 -261.7 271.3675 -260 270.6875 C-260 270.0275 -260 269.3675 -260 268.6875 C-259.34 268.6875 -258.68 268.6875 -258 268.6875 C-257.90332031 267.67429687 -257.90332031 267.67429687 -257.8046875 266.640625 C-256.70627209 262.60954709 -254.57244293 259.77933425 -252.125 256.4375 C-251.67769531 255.80070312 -251.23039062 255.16390625 -250.76953125 254.5078125 C-247.38541667 249.81597222 -247.38541667 249.81597222 -244 248.6875 C-243.29690234 247.37301307 -242.63415111 246.0366014 -242 244.6875 C-240.96810687 243.51402787 -239.90238709 242.36981534 -238.8125 241.25 C-234.83455342 236.84200514 -232.34384851 231.94564473 -229.640625 226.69140625 C-227.74884077 223.22763941 -225.65820147 220.58024866 -223 217.6875 C-222.67 217.0275 -222.34 216.3675 -222 215.6875 C-221.34 215.6875 -220.68 215.6875 -220 215.6875 C-219.6596875 214.6975 -219.6596875 214.6975 -219.3125 213.6875 C-216.19502184 206.56183563 -211.59161381 200.75908459 -206.4375 195 C-205.31035578 193.72600499 -204.18403479 192.45128109 -203.05859375 191.17578125 C-202.26727051 190.28113159 -202.26727051 190.28113159 -201.45996094 189.3684082 C-199.57193945 187.19465771 -197.78607311 184.94528993 -196 182.6875 C-193.875 180.375 -193.875 180.375 -192 178.6875 C-191.34 178.6875 -190.68 178.6875 -190 178.6875 C-189.74863281 178.12546875 -189.49726563 177.5634375 -189.23828125 176.984375 C-187.81584969 174.3459215 -186.10532149 172.24035257 -184.1875 169.9375 C-181.73267229 166.92194725 -179.44110248 163.95765879 -177.4375 160.625 C-174.68896888 156.05346354 -171.61382484 151.61992401 -168 147.6875 C-167.34 147.6875 -166.68 147.6875 -166 147.6875 C-166 147.0275 -166 146.3675 -166 145.6875 C-165.34 145.6875 -164.68 145.6875 -164 145.6875 C-163.731875 145.11 -163.46375 144.5325 -163.1875 143.9375 C-162 141.6875 -162 141.6875 -160.3125 139.75 C-158.76604891 137.74318743 -158.76604891 137.74318743 -159.0625 135.1875 C-160.16958334 132.23527777 -161.72096228 130.81950303 -164 128.6875 C-164 128.0275 -164 127.3675 -164 126.6875 C-164.5878125 126.41808594 -165.175625 126.14867187 -165.78125 125.87109375 C-169.69217376 123.78480871 -172.73187644 120.65087892 -176 117.6875 C-177.03872069 116.76523989 -178.07780509 115.8433893 -179.1171875 114.921875 C-180.20362405 113.94847339 -181.28956258 112.97451562 -182.375 112 C-182.89900391 111.5366626 -183.42300781 111.0733252 -183.96289062 110.59594727 C-186.63776851 108.1717302 -188.68076803 106.0809461 -190 102.6875 C-181.93844682 103.63591802 -176.68385369 108.3844021 -170.62060547 113.359375 C-168.16516556 115.37166682 -165.67331988 117.33794804 -163.1875 119.3125 C-161.7906308 120.43621354 -160.39436315 121.56067831 -159 122.6875 C-158.79657261 120.27898505 -158.79657261 120.27898505 -159 117.6875 C-161.38118166 115.46581634 -161.38118166 115.46581634 -164 113.6875 C-164.33 113.0275 -164.66 112.3675 -165 111.6875 C-166.64821244 110.65736723 -168.32111559 109.66684924 -170 108.6875 C-171.38009478 107.77852191 -172.75455098 106.86095669 -174.125 105.9375 C-177.5047761 103.66566375 -180.92282099 101.47257772 -184.375 99.3125 C-189.33813461 96.17641494 -194.07409078 92.79025607 -198.78515625 89.2890625 C-200.89455028 87.67284836 -200.89455028 87.67284836 -203 86.6875 C-203 86.0275 -203 85.3675 -203 84.6875 C-203.763125 84.584375 -204.52625 84.48125 -205.3125 84.375 C-208 83.6875 -208 83.6875 -209.3527832 82.30444336 C-211.39893376 80.29589806 -213.44755831 79.34326832 -216.04296875 78.12890625 C-217.03490234 77.66033203 -218.02683594 77.19175781 -219.04882812 76.70898438 C-220.08458984 76.22751953 -221.12035156 75.74605469 -222.1875 75.25 C-224.22294618 74.29358553 -226.25810777 73.33656516 -228.29296875 72.37890625 C-229.75440308 71.69429321 -229.75440308 71.69429321 -231.24536133 70.99584961 C-233.68988569 69.83479262 -236.11003206 68.63811687 -238.5234375 67.4140625 C-241.6496228 65.86150755 -244.68123897 64.73979008 -248 63.6875 C-249.73956658 61.94793342 -249.37190386 59.4938378 -249.5625 57.125 C-249.68818359 55.60712891 -249.68818359 55.60712891 -249.81640625 54.05859375 C-249.87699219 53.27613281 -249.93757813 52.49367187 -250 51.6875 C-247.03 50.0375 -244.06 48.3875 -241 46.6875 C-241.53625 45.945 -242.0725 45.2025 -242.625 44.4375 C-243.07875 43.53 -243.5325 42.6225 -244 41.6875 C-242.23862587 36.79919202 -238.48036289 33.1741014 -234 30.6875 C-228.25132233 30.35094767 -223.18530993 32.87468137 -218.2421875 35.5546875 C-212.3226348 38.54540228 -205.91061603 40.61408132 -199.6953125 42.90625 C-189.39811205 46.7584401 -179.5711525 50.57836058 -171.5234375 58.26953125 C-170.03745383 59.78628558 -170.03745383 59.78628558 -168 60.6875 C-168 61.3475 -168 62.0075 -168 62.6875 C-167.01 62.3575 -166.02 62.0275 -165 61.6875 C-164.67 60.6975 -164.34 59.7075 -164 58.6875 C-159.48751642 59.20321241 -157.47605537 60.86564606 -154 63.6875 C-151.59433023 65.3610094 -149.1397431 66.95826912 -146.6875 68.5625 C-135.81445564 75.75733213 -135.81445564 75.75733213 -131 79.6875 C-131 80.3475 -131 81.0075 -131 81.6875 C-130.236875 81.955625 -129.47375 82.22375 -128.6875 82.5 C-126.11011382 83.63884505 -124.73045136 84.50166671 -123 86.6875 C-123 87.3475 -123 88.0075 -123 88.6875 C-122.34 88.6875 -121.68 88.6875 -121 88.6875 C-121 89.3475 -121 90.0075 -121 90.6875 C-117.33694766 91.43676071 -114.57644848 91.9255014 -111 90.6875 C-111 90.0275 -111 89.3675 -111 88.6875 C-109.4609375 87.13671875 -109.4609375 87.13671875 -107.375 85.375 C-106.64796875 84.75882812 -105.9209375 84.14265625 -105.171875 83.5078125 C-104.45515625 82.90710938 -103.7384375 82.30640625 -103 81.6875 C-102.40703125 81.16929687 -101.8140625 80.65109375 -101.203125 80.1171875 C-97.24428571 76.6875 -97.24428571 76.6875 -95 76.6875 C-95 76.0275 -95 75.3675 -95 74.6875 C-94.34 74.6875 -93.68 74.6875 -93 74.6875 C-92.67 73.6975 -92.34 72.7075 -92 71.6875 C-90.34731229 70.18635632 -88.62793314 68.75776333 -86.875 67.375 C-85.87984375 66.57964844 -84.8846875 65.78429687 -83.859375 64.96484375 C-82.91578125 64.21332031 -81.9721875 63.46179688 -81 62.6875 C-77.59583121 59.86960472 -74.3416402 57.03690475 -71.25 53.875 C-69 51.6875 -69 51.6875 -66 50.6875 C-65.72285156 50.11515625 -65.44570313 49.5428125 -65.16015625 48.953125 C-63.54238407 45.79383927 -61.0590769 43.75321273 -58.4375 41.4375 C-57.90463379 40.95949951 -57.37176758 40.48149902 -56.82275391 39.98901367 C-55.73835672 39.01740547 -54.65177541 38.04822924 -53.56298828 37.08154297 C-52.12316986 35.79735628 -50.69945322 34.49517662 -49.27734375 33.19140625 C-48.48457031 32.46824219 -47.69179688 31.74507812 -46.875 31 C-45.81925781 30.03513672 -45.81925781 30.03513672 -44.7421875 29.05078125 C-43 27.6875 -43 27.6875 -41 27.6875 C-40.67 26.6975 -40.34 25.7075 -40 24.6875 C-39.34 24.6875 -38.68 24.6875 -38 24.6875 C-38 24.0275 -38 23.3675 -38 22.6875 C-36.6015625 21.3125 -36.6015625 21.3125 -34.625 19.6875 C-31.22400202 16.82539254 -28.17444868 13.7953016 -25.125 10.5625 C-17.97752301 3.30455196 -10.23196024 -0.71410556 0 0 Z " fill="#F8F8F8" transform="translate(523,93.3125)"/>
<path d="M0 0 C0.95543701 0.30478271 0.95543701 0.30478271 1.93017578 0.61572266 C8.7249925 2.78645463 14.96153016 5.21115618 21 9 C22.47716449 9.79539626 23.95648406 10.5867983 25.4375 11.375 C39.59733701 19.28925233 53.13821133 32.13433317 63 45 C63.82177734 46.05380859 63.82177734 46.05380859 64.66015625 47.12890625 C66.56862918 51.21849109 66.32446415 54.86292106 66.1875 59.3125 C66.17396484 60.14845703 66.16042969 60.98441406 66.14648438 61.84570312 C66.11131217 63.89741498 66.05751048 65.94879275 66 68 C65.01 68 64.02 68 63 68 C62.60167969 67.26394531 62.20335937 66.52789062 61.79296875 65.76953125 C61.26316406 64.79371094 60.73335937 63.81789063 60.1875 62.8125 C59.66542969 61.84957031 59.14335937 60.88664062 58.60546875 59.89453125 C57.54958794 57.99086293 56.44859359 56.11141174 55.30078125 54.26171875 C54 52 54 52 54 50 C53.34 50 52.68 50 52 50 C49 45.61538462 49 45.61538462 49 43 C48.443125 42.773125 47.88625 42.54625 47.3125 42.3125 C44.3530491 40.63281165 42.33873216 38.45866715 40 36 C39.401875 35.443125 38.80375 34.88625 38.1875 34.3125 C37 33 37 33 37 31 C35.91332031 30.60941406 35.91332031 30.60941406 34.8046875 30.2109375 C31.91260316 28.96226599 29.66312874 27.48196959 27.125 25.625 C12.28275137 14.79159023 -5.79996248 10.01762698 -24.125 12.6875 C-26.09077281 13.09025671 -28.04933207 13.52949991 -30 14 C-31.14339844 14.26941406 -32.28679687 14.53882812 -33.46484375 14.81640625 C-49.21810779 18.90438682 -64.09533355 27.83685742 -74.1875 40.8125 C-74.785625 41.534375 -75.38375 42.25625 -76 43 C-76.66 43 -77.32 43 -78 43 C-78.25910156 43.72316406 -78.51820313 44.44632813 -78.78515625 45.19140625 C-80.04789615 48.11073098 -81.55747639 50.37824205 -83.4375 52.9375 C-86.01468142 56.5294466 -88.19697705 59.96971342 -90 64 C-90.66 64 -91.32 64 -92 64 C-92.10957031 64.70382813 -92.21914062 65.40765625 -92.33203125 66.1328125 C-93.07508314 69.32228668 -94.28220444 71.91687129 -95.6875 74.875 C-98.60090381 81.33562268 -100.5269388 87.96282644 -102.3125 94.8125 C-102.56668701 95.77849121 -102.82087402 96.74448242 -103.08276367 97.73974609 C-105.26934905 106.39538262 -106.15457629 114.78353437 -106.16796875 123.69921875 C-106.17129715 124.4967305 -106.17462555 125.29424225 -106.17805481 126.11592102 C-106.18308019 127.79236278 -106.18546451 129.46881439 -106.18530273 131.14526367 C-106.18747975 133.66407421 -106.20565673 136.18243902 -106.22460938 138.70117188 C-106.27371763 152.22383683 -104.902553 164.99530041 -101.25 178.0625 C-100.85748047 179.47946167 -100.85748047 179.47946167 -100.45703125 180.92504883 C-98.3224539 188.37245132 -95.64194715 195.14513089 -92 202 C-91.52820313 202.93714844 -91.05640625 203.87429687 -90.5703125 204.83984375 C-87.41474595 210.92070577 -83.70398662 216.34891634 -79.5390625 221.78515625 C-78 224 -78 224 -78 226 C-77.40445313 226.25523437 -76.80890625 226.51046875 -76.1953125 226.7734375 C-73.77012697 228.1284344 -72.59274635 229.45839531 -70.875 231.625 C-62.19927559 241.81436144 -50.69900856 248.92166456 -38 253 C-37.1853125 253.26683594 -36.370625 253.53367187 -35.53125 253.80859375 C-20.33158679 258.59282509 -7.0063958 257.36083297 8 253 C9.28390625 252.6596875 9.28390625 252.6596875 10.59375 252.3125 C17.61201947 250.27821899 25.55456217 246.55866818 30.6640625 241.28125 C32 240 32 240 35 240 C35 239.34 35 238.68 35 238 C35.66 238 36.32 238 37 238 C37.226875 237.443125 37.45375 236.88625 37.6875 236.3125 C39.36718835 233.3530491 41.54133285 231.33873216 44 229 C44.556875 228.401875 45.11375 227.80375 45.6875 227.1875 C47 226 47 226 49 226 C49.27199219 225.26523438 49.54398438 224.53046875 49.82421875 223.7734375 C50.94327132 221.13381184 52.19781963 218.98524518 53.8125 216.625 C54.33972656 215.85027344 54.86695313 215.07554687 55.41015625 214.27734375 C56.83760066 212.23262608 58.28668485 210.20661437 59.75 208.1875 C61.43331371 205.80280558 62.83190548 203.65476027 64 201 C64.66 201 65.32 201 66 201 C67.26633166 219.45226131 67.26633166 219.45226131 60.7265625 227.4453125 C59 229 59 229 57 229 C56.72027344 229.59425781 56.44054687 230.18851563 56.15234375 230.80078125 C52.08559261 238.56207242 44.7409738 243.69160579 38 249 C37.16339844 249.680625 36.32679688 250.36125 35.46484375 251.0625 C21.6289646 261.93824653 5.96880901 268.04939036 -11 272 C-11.75804932 272.17958252 -12.51609863 272.35916504 -13.29711914 272.54418945 C-18.67241411 273.45067267 -24.15778457 273.26570412 -29.59741211 273.29516602 C-31.05454306 273.30656867 -32.51163626 273.32682948 -33.96850586 273.35668945 C-55.48261853 273.79625413 -74.69288567 267.05459605 -93 256 C-95.32677893 254.65480383 -97.66262829 253.3267761 -100 252 C-100 251.34 -100 250.68 -100 250 C-100.66 250 -101.32 250 -102 250 C-102 249.34 -102 248.68 -102 248 C-102.680625 247.814375 -103.36125 247.62875 -104.0625 247.4375 C-108.21162482 245.40707722 -110.85667107 242.323138 -114 239 C-114.80566406 238.20722656 -115.61132812 237.41445312 -116.44140625 236.59765625 C-133.09173372 219.69312531 -133.09173372 219.69312531 -135 210 C-135.66 210 -136.32 210 -137 210 C-142.26575561 199.8744654 -146.70573944 189.77642987 -149.9375 178.8125 C-150.21924072 177.87728516 -150.50098145 176.94207031 -150.79125977 175.97851562 C-154.70419721 162.0924325 -155.38927816 148.02719287 -155.3125 133.6875 C-155.30968018 132.92142426 -155.30686035 132.15534851 -155.30395508 131.36605835 C-155.15890585 105.07007082 -149.70862185 80.76664693 -136 58 C-135.51144531 57.15953125 -135.02289063 56.3190625 -134.51953125 55.453125 C-126.71576844 42.85476242 -115.91171664 29.90106298 -104 21 C-103.34 21 -102.68 21 -102 21 C-102 20.34 -102 19.68 -102 19 C-88.74952373 7.22179887 -69.90910096 0.89703406 -53 -3 C-52.22156738 -3.18191895 -51.44313477 -3.36383789 -50.64111328 -3.55126953 C-34.60796196 -6.27533425 -15.34811982 -5.14936919 0 0 Z " fill="#F3F3F3" transform="translate(270,10)"/>
<path d="M0 0 C5.77475542 0.65997205 9.11847275 3.91418184 13 8 C12.34 8.66 11.68 9.32 11 10 C11.32041397 12.60280568 11.32041397 12.60280568 12 15 C7.25 14.125 7.25 14.125 5 13 C5 12.34 5 11.68 5 11 C4.01 10.67 3.02 10.34 2 10 C0.62665383 7.71108972 -0.15250816 5.54247553 -1 3 C-0.67 2.01 -0.34 1.02 0 0 Z " fill="#CDC8C8" transform="translate(359,152)"/>
<path d="M0 0 C-1.28062485 1.7074998 -2.61767557 3.37373596 -4 5 C-4.66 5 -5.32 5 -6 5 C-6.33 5.99 -6.66 6.98 -7 8 C-9.1796875 10.078125 -9.1796875 10.078125 -11.875 12.25 C-13.20144531 13.34054687 -13.20144531 13.34054687 -14.5546875 14.453125 C-15.76511719 15.21882813 -15.76511719 15.21882813 -17 16 C-17.99 15.67 -18.98 15.34 -20 15 C-18.56409028 11.57937737 -16.80189977 9.76125081 -13.9375 7.4375 C-10.66415861 4.81717494 -10.66415861 4.81717494 -9 1 C-5.78578255 -1.29586961 -3.71609706 -1.03224918 0 0 Z " fill="#B6ADAD" transform="translate(346,311)"/>
<path d="M0 0 C0.66 0.33 1.32 0.66 2 1 C1.24172908 2.17487036 0.46792245 3.33972592 -0.3125 4.5 C-0.74175781 5.1496875 -1.17101562 5.799375 -1.61328125 6.46875 C-2.07089844 6.9740625 -2.52851563 7.479375 -3 8 C-3.99 8 -4.98 8 -6 8 C-7.80495453 9.6615027 -7.80495453 9.6615027 -9.5 11.8125 C-11.58277276 14.32004878 -13.65488525 16.73353239 -16 19 C-16.99 18.67 -17.98 18.34 -19 18 C-16.39993924 15.37090575 -13.79426043 12.7474503 -11.1875 10.125 C-10.44951172 9.37863281 -9.71152344 8.63226563 -8.95117188 7.86328125 C-8.23896484 7.14785156 -7.52675781 6.43242188 -6.79296875 5.6953125 C-6.1383667 5.03547363 -5.48376465 4.37563477 -4.80932617 3.69580078 C-3 2 -3 2 0 0 Z " fill="#BEBCBC" transform="translate(506,97)"/>
<path d="M0 0 C2.42969742 1.03303462 4.26237912 2.30603606 6.296875 3.9765625 C-0.53645833 3.01989583 -0.53645833 3.01989583 -3.828125 2.1640625 C-6.8067643 1.67519662 -6.8067643 1.67519662 -9.203125 3.6640625 C-10.028125 4.4271875 -10.853125 5.1903125 -11.703125 5.9765625 C-13.67046929 7.36445147 -15.68501951 8.6624473 -17.703125 9.9765625 C-14.10419662 1.87897366 -8.78599914 -2.32241379 0 0 Z " fill="#BDB6B8" transform="translate(296.703125,125.0234375)"/>
<path d="M0 0 C0.93065133 2.60582371 1.14917407 3.64198224 0.0625 6.25 C-0.4634375 7.11625 -0.4634375 7.11625 -1 8 C1.64 7.67 4.28 7.34 7 7 C4.97803833 9.02196167 3.74135514 9.67551358 1.125 10.6875 C0.44695312 10.95949219 -0.23109375 11.23148437 -0.9296875 11.51171875 C-3.35016821 12.08258684 -4.69572043 11.90275888 -7 11 C-7.33 10.34 -7.66 9.68 -8 9 C-6.35 8.34 -4.7 7.68 -3 7 C-3 6.34 -3 5.68 -3 5 C-2.34 5 -1.68 5 -1 5 C-0.67 3.35 -0.34 1.7 0 0 Z " fill="#A29E9F" transform="translate(266,357)"/>
<path d="M0 0 C0.66 0.33 1.32 0.66 2 1 C-1.33333333 4.33333333 -4.66666667 7.66666667 -8 11 C-9.299375 12.3921875 -9.299375 12.3921875 -10.625 13.8125 C-13 16 -13 16 -16 16 C-16 14 -16 14 -14.4609375 12.44921875 C-13.77257812 11.86785156 -13.08421875 11.28648437 -12.375 10.6875 C-11.64796875 10.07132813 -10.9209375 9.45515625 -10.171875 8.8203125 C-9.45515625 8.21960938 -8.7384375 7.61890625 -8 7 C-7.11054688 6.22269531 -7.11054688 6.22269531 -6.203125 5.4296875 C-2.24428571 2 -2.24428571 2 0 2 C0 1.34 0 0.68 0 0 Z " fill="#A4A3A3" transform="translate(428,168)"/>
<path d="M0 0 C0 3 0 3 -1.35546875 4.39453125 C-2.26232422 5.09642578 -2.26232422 5.09642578 -3.1875 5.8125 C-6.62120213 8.59714868 -9.27205624 11.52807158 -12 15 C-12.99 14.67 -13.98 14.34 -15 14 C-10.18808428 9.07559794 -5.29012124 4.40843437 0 0 Z " fill="#9E9E9E" transform="translate(480,121)"/>
<path d="M0 0 C0 4.33174693 -2.65822583 6.22353653 -5.5 9.1875 C-6.28697266 10.02571289 -6.28697266 10.02571289 -7.08984375 10.88085938 C-8.38661613 12.26015364 -9.69246259 13.63090644 -11 15 C-11.66 14.67 -12.32 14.34 -13 14 C-11.58474822 12.41540185 -10.1677358 10.83237609 -8.75 9.25 C-7.96109375 8.36828125 -7.1721875 7.4865625 -6.359375 6.578125 C-4.29407328 4.32133835 -2.18264936 2.14260074 0 0 Z " fill="#B3B0B1" transform="translate(160,36)"/>
<path d="M0 0 C0.66 1.32 1.32 2.64 2 4 C-0.3125 6.0625 -0.3125 6.0625 -3 8 C-3.99 7.67 -4.98 7.34 -6 7 C-4.60667426 3.63279613 -3.0210714 2.0140476 0 0 Z " fill="#9A9696" transform="translate(332,319)"/>
<path d="M0 0 C0.66 0.99 1.32 1.98 2 3 C0.71451591 4.33929505 -0.57858155 5.67128643 -1.875 7 C-2.59429687 7.7425 -3.31359375 8.485 -4.0546875 9.25 C-6 11 -6 11 -8 11 C-6.63629701 8.00779732 -5.05091917 5.70973471 -2.875 3.25 C-2.33617187 2.63640625 -1.79734375 2.0228125 -1.2421875 1.390625 C-0.62730469 0.70226562 -0.62730469 0.70226562 0 0 Z " fill="#C1C0C0" transform="translate(321,283)"/>
<path d="M0 0 C0.66 0.33 1.32 0.66 2 1 C-1.95623632 7.70459519 -1.95623632 7.70459519 -6.3125 8.9375 C-7.199375 8.958125 -8.08625 8.97875 -9 9 C-8.06725891 7.87105124 -7.12859878 6.74699124 -6.1875 5.625 C-5.66542969 4.99851562 -5.14335937 4.37203125 -4.60546875 3.7265625 C-3 2 -3 2 0 0 Z " fill="#A8A6A7" transform="translate(506,97)"/>
<path d="M0 0 C1.32 0.33 2.64 0.66 4 1 C4 2.32 4 3.64 4 5 C-2.5 8.125 -2.5 8.125 -7 7 C-4.36 5.68 -1.72 4.36 1 3 C0.67 2.01 0.34 1.02 0 0 Z " fill="#B5B0B1" transform="translate(281,137)"/>
<path d="M0 0 C1.98 0.66 3.96 1.32 6 2 C4.09598862 3.90401138 2.66574314 4.93520439 -0.046875 5.19921875 C-2.03233273 5.1886578 -4.0169914 5.09915043 -6 5 C-6 4.67 -6 4.34 -6 4 C-4.02 4 -2.04 4 0 4 C0 2.68 0 1.36 0 0 Z " fill="#BAB5B6" transform="translate(524,321)"/>
<path d="M0 0 C0.66 0.33 1.32 0.66 2 1 C-0.53363068 5.22271781 -2.56620325 7.78310162 -7 10 C-5.63055898 7.05043472 -4.12169591 4.47531189 -2 2 C-1.34 2 -0.68 2 0 2 C0 1.34 0 0.68 0 0 Z " fill="#ADABAC" transform="translate(357,239)"/>
<path d="M0 0 C4.85963179 0.60745397 8.7405518 2.72758967 13 5 C11 6 11 6 8.1875 5.25 C5.20221533 4.07930013 2.652399 2.79426991 0 1 C0 0.67 0 0.34 0 0 Z " fill="#929091" transform="translate(326,138)"/>
<path d="M0 0 C2.4375 0.8125 2.4375 0.8125 5 2 C5.33 2.99 5.66 3.98 6 5 C1.25 4.125 1.25 4.125 -1 3 C-0.67 2.01 -0.34 1.02 0 0 Z " fill="#9A9395" transform="translate(365,162)"/>
<path d="M0 0 C0.66 0.33 1.32 0.66 2 1 C1.09515208 2.15518918 0.1755794 3.29885406 -0.75 4.4375 C-1.26046875 5.07558594 -1.7709375 5.71367187 -2.296875 6.37109375 C-4.19667629 8.18810554 -5.43586908 8.60423197 -8 9 C-7.04270084 7.87411986 -6.08412105 6.7493285 -5.125 5.625 C-4.59132813 4.99851563 -4.05765625 4.37203125 -3.5078125 3.7265625 C-2.38567993 2.44163349 -1.20628025 1.20628025 0 0 Z " fill="#989798" transform="translate(452,146)"/>
<path d="M0 0 C1.44010481 0.25662245 2.8770687 0.53090821 4.3125 0.8125 C5.11300781 0.96332031 5.91351563 1.11414063 6.73828125 1.26953125 C9.23445587 2.07572236 10.32422106 3.02052002 12 5 C7.25081338 4.53439347 3.89217595 3.83067342 0 1 C0 0.67 0 0.34 0 0 Z " fill="#888384" transform="translate(442,298)"/>
<path d="M0 0 C0.66 0.33 1.32 0.66 2 1 C2 1.99 2 2.98 2 4 C-1 6.1875 -1 6.1875 -4 8 C-4.66 7.67 -5.32 7.34 -6 7 C-5.01 6.67 -4.02 6.34 -3 6 C-1.83333333 4.08333333 -1.83333333 4.08333333 -1 2 C-0.67 1.34 -0.34 0.68 0 0 Z " fill="#B0ABAE" transform="translate(282,336)"/>
<path d="M0 0 C1.32 0 2.64 0 4 0 C3.25 1.9375 3.25 1.9375 2 4 C-0.125 4.75 -0.125 4.75 -2 5 C-1.34 3.35 -0.68 1.7 0 0 Z " fill="#D5CFCF" transform="translate(334,317)"/>
<path d="M0 0 C0 0.66 0 1.32 0 2 C-4.15267176 5.11450382 -4.15267176 5.11450382 -7.3125 4.6875 C-7.869375 4.460625 -8.42625 4.23375 -9 4 C-2.25 0 -2.25 0 0 0 Z " fill="#A09C9D" transform="translate(296,256)"/>
<path d="M0 0 C4.55737263 0.43820891 7.57653445 0.85041169 11 4 C6.44262737 3.56179109 3.42346555 3.14958831 0 0 Z " fill="#A19F9F" transform="translate(292,125)"/>
<path d="M0 0 C0.33 0 0.66 0 1 0 C1.36630156 3.93774177 1.30233203 5.56539771 -1 8.875 C-1.66 9.57625 -2.32 10.2775 -3 11 C-2.44894091 7.0507432 -1.61064629 3.65079826 0 0 Z " fill="#A9A5A7" transform="translate(122,95)"/>
</svg>
